<svg data-v-423bf9ae="" xmlns="http://www.w3.org/2000/svg" viewBox="0 0 421 90" class="iconLeft"><!----><defs data-v-423bf9ae=""><linearGradient data-v-423bf9ae="" gradientTransform="rotate(25)" id="bdf59c89-dca7-4167-8899-96cdc03cb2a3" x1="0%" y1="0%" x2="100%" y2="0%"><stop data-v-423bf9ae="" offset="0%" style="stop-color: rgb(0, 118, 221); stop-opacity: 1;"></stop><stop data-v-423bf9ae="" offset="100%" style="stop-color: rgb(230, 0, 233); stop-opacity: 1;"></stop></linearGradient></defs><!----><g data-v-423bf9ae="" id="af16980c-cfc2-4e02-9877-f439d00ea3b3" fill="#ffffff" transform="matrix(6.097560881055492,0,0,6.097560881055492,109.13227347653736,-4.390242339882512)"><path d="M4.21 13.02L4.21 13.02L3.02 13.02L3.02 13.02Q2.73 13.02 2.73 12.73L2.73 12.73L2.73 9.73L0.17 4.33L0.17 4.33Q0.11 4.20 0.18 4.11L0.18 4.11L0.18 4.11Q0.24 4.02 0.36 4.02L0.36 4.02L1.85 4.02L1.85 4.02Q2.07 4.02 2.18 4.31L2.18 4.31L3.58 7.71L3.68 7.71L5.05 4.31L5.05 4.31Q5.15 4.02 5.39 4.02L5.39 4.02L6.87 4.02L6.87 4.02Q7.01 4.02 7.08 4.10L7.08 4.10L7.08 4.10Q7.14 4.19 7.07 4.33L7.07 4.33L4.51 9.73L4.51 12.73L4.51 12.73Q4.51 13.02 4.21 13.02ZM9.63 13.02L9.63 13.02L8.44 13.02L8.44 13.02Q8.15 13.02 8.15 12.73L8.15 12.73L8.15 4.31L8.15 4.31Q8.15 4.02 8.44 4.02L8.44 4.02L12.91 4.02L12.91 4.02Q13.19 4.02 13.19 4.31L13.19 4.31L13.19 5.26L13.19 5.26Q13.19 5.56 12.91 5.56L12.91 5.56L10.09 5.56L10.09 5.56Q9.93 5.56 9.93 5.71L9.93 5.71L9.93 7.88L9.93 7.88Q9.93 8.05 10.09 8.05L10.09 8.05L12.49 8.05L12.49 8.05Q12.78 8.05 12.78 8.34L12.78 8.34L12.78 9.28L12.78 9.28Q12.78 9.59 12.49 9.59L12.49 9.59L10.09 9.59L10.09 9.59Q9.93 9.59 9.93 9.74L9.93 9.74L9.93 12.73L9.93 12.73Q9.93 13.02 9.63 13.02ZM14.38 4.68L14.38 4.68L14.38 3.46L14.38 3.46Q14.38 3.18 14.66 3.18L14.66 3.18L15.88 3.18L15.88 3.18Q16.16 3.18 16.16 3.44L16.16 3.44L16.16 4.68L16.16 4.68Q16.16 4.96 15.88 4.96L15.88 4.96L14.66 4.96L14.66 4.96Q14.38 4.96 14.38 4.68ZM14.38 12.73L14.38 12.73L14.38 6.17L14.38 6.17Q14.38 5.88 14.66 5.88L14.66 5.88L15.86 5.88L15.86 5.88Q16.16 5.88 16.16 6.17L16.16 6.17L16.16 12.73L16.16 12.73Q16.16 12.91 16.09 12.96L16.09 12.96L16.09 12.96Q16.03 13.02 15.88 13.02L15.88 13.02L14.67 13.02L14.67 13.02Q14.38 13.02 14.38 12.73ZM19.25 13.02L19.25 13.02L18.06 13.02L18.06 13.02Q17.77 13.02 17.77 12.73L17.77 12.73L17.77 6.17L17.77 6.17Q17.77 5.88 18.06 5.88L18.06 5.88L19.25 5.88L19.25 5.88Q19.54 5.88 19.54 6.17L19.54 6.17L19.54 6.64L19.60 6.64L19.60 6.64Q19.91 5.88 20.97 5.88L20.97 5.88L21.42 5.88L21.42 5.88Q23.62 5.88 23.62 8.16L23.62 8.16L23.62 12.73L23.62 12.73Q23.62 13.02 23.31 13.02L23.31 13.02L22.13 13.02L22.13 13.02Q21.84 13.02 21.84 12.73L21.84 12.73L21.84 8.25L21.84 8.25Q21.84 7.80 21.65 7.61L21.65 7.61L21.65 7.61Q21.46 7.42 21.01 7.42L21.01 7.42L20.51 7.42L20.51 7.42Q19.54 7.42 19.54 8.48L19.54 8.48L19.54 12.73L19.54 12.73Q19.54 13.02 19.25 13.02ZM27.59 13.02L27.59 13.02L27.26 13.02L27.26 13.02Q26.15 13.02 25.55 12.43L25.55 12.43L25.55 12.43Q24.95 11.84 24.95 10.74L24.95 10.74L24.95 8.16L24.95 8.16Q24.95 7.06 25.55 6.47L25.55 6.47L25.55 6.47Q26.15 5.88 27.26 5.88L27.26 5.88L30.49 5.88L30.49 5.88Q30.80 5.88 30.80 6.17L30.80 6.17L30.80 12.73L30.80 12.73Q30.80 13.02 30.49 13.02L30.49 13.02L29.32 13.02L29.32 13.02Q29.02 13.02 29.02 12.73L29.02 12.73L29.02 12.26L28.97 12.26L28.97 12.26Q28.81 12.64 28.42 12.83L28.42 12.83L28.42 12.83Q28.03 13.02 27.59 13.02ZM29.02 10.42L29.02 10.42L29.02 7.57L29.02 7.57Q29.02 7.42 28.85 7.42L28.85 7.42L27.54 7.42L27.54 7.42Q27.09 7.42 26.91 7.61L26.91 7.61L26.91 7.61Q26.73 7.80 26.73 8.25L26.73 8.25L26.73 10.65L26.73 10.65Q26.73 11.10 26.91 11.29L26.91 11.29L26.91 11.29Q27.09 11.48 27.54 11.48L27.54 11.48L28.06 11.48L28.06 11.48Q29.02 11.48 29.02 10.42ZM33.82 13.02L33.82 13.02L32.63 13.02L32.63 13.02Q32.34 13.02 32.34 12.73L32.34 12.73L32.34 6.17L32.34 6.17Q32.34 5.88 32.63 5.88L32.63 5.88L33.82 5.88L33.82 5.88Q34.12 5.88 34.12 6.17L34.12 6.17L34.12 6.64L34.17 6.64L34.17 6.64Q34.48 5.88 35.55 5.88L35.55 5.88L35.99 5.88L35.99 5.88Q38.19 5.88 38.19 8.16L38.19 8.16L38.19 12.73L38.19 12.73Q38.19 13.02 37.88 13.02L37.88 13.02L36.71 13.02L36.71 13.02Q36.41 13.02 36.41 12.73L36.41 12.73L36.41 8.25L36.41 8.25Q36.41 7.80 36.23 7.61L36.23 7.61L36.23 7.61Q36.04 7.42 35.59 7.42L35.59 7.42L35.08 7.42L35.08 7.42Q34.12 7.42 34.12 8.48L34.12 8.48L34.12 12.73L34.12 12.73Q34.12 13.02 33.82 13.02ZM44.21 11.77L44.21 11.77L44.21 12.74L44.21 12.74Q44.21 12.89 44.15 12.96L44.15 12.96L44.15 12.96Q44.09 13.02 43.92 13.02L43.92 13.02L41.83 13.02L41.83 13.02Q40.73 13.02 40.12 12.43L40.12 12.43L40.12 12.43Q39.52 11.84 39.52 10.74L39.52 10.74L39.52 8.16L39.52 8.16Q39.52 7.06 40.12 6.47L40.12 6.47L40.12 6.47Q40.73 5.88 41.83 5.88L41.83 5.88L43.92 5.88L43.92 5.88Q44.21 5.88 44.21 6.17L44.21 6.17L44.21 7.14L44.21 7.14Q44.21 7.29 44.15 7.36L44.15 7.36L44.15 7.36Q44.09 7.42 43.92 7.42L43.92 7.42L42.11 7.42L42.11 7.42Q41.68 7.42 41.49 7.61L41.49 7.61L41.49 7.61Q41.30 7.80 41.30 8.25L41.30 8.25L41.30 10.65L41.30 10.65Q41.30 11.10 41.49 11.29L41.49 11.29L41.49 11.29Q41.68 11.48 42.11 11.48L42.11 11.48L43.92 11.48L43.92 11.48Q44.21 11.48 44.21 11.77ZM50.68 13.02L50.68 13.02L47.59 13.02L47.59 13.02Q46.48 13.02 45.88 12.43L45.88 12.43L45.88 12.43Q45.28 11.84 45.28 10.74L45.28 10.74L45.28 8.16L45.28 8.16Q45.28 7.06 45.88 6.47L45.88 6.47L45.88 6.47Q46.48 5.88 47.59 5.88L47.59 5.88L48.69 5.88L48.69 5.88Q49.80 5.88 50.40 6.47L50.40 6.47L50.40 6.47Q51.00 7.06 51.00 8.16L51.00 8.16L51.00 9.94L51.00 9.94Q51.00 10.23 50.71 10.23L50.71 10.23L47.19 10.23L47.19 10.23Q47.03 10.23 47.03 10.39L47.03 10.39L47.03 10.70L47.03 10.70Q47.03 11.13 47.22 11.32L47.22 11.32L47.22 11.32Q47.40 11.51 47.85 11.51L47.85 11.51L50.68 11.51L50.68 11.51Q50.97 11.51 50.97 11.82L50.97 11.82L50.97 12.74L50.97 12.74Q50.97 12.89 50.91 12.96L50.91 12.96L50.91 12.96Q50.85 13.02 50.68 13.02ZM47.19 9.04L47.19 9.04L49.10 9.04L49.10 9.04Q49.25 9.04 49.25 8.89L49.25 8.89L49.25 8.22L49.25 8.22Q49.25 7.77 49.07 7.59L49.07 7.59L49.07 7.59Q48.89 7.41 48.44 7.41L48.44 7.41L47.85 7.41L47.85 7.41Q47.40 7.41 47.22 7.59L47.22 7.59L47.22 7.59Q47.04 7.77 47.04 8.22L47.04 8.22L47.04 8.89L47.04 8.89Q47.04 9.04 47.19 9.04Z"></path></g><!----><g data-v-423bf9ae="" id="fb1a812c-be3a-44e8-a61d-9afa69175ae5" transform="matrix(2.8125,0,0,2.8125,0,0)" stroke="none" fill="#ffffff"><path d="M16 32c8.837 0 16-7.163 16-16S24.837 0 16 0 0 7.163 0 16s7.163 16 16 16zM14.817 6.421h2v8.886h8.887v2H14.817V6.421zm-5.959.437h2v14.283h14.283v2H8.858V6.858z"></path></g><!----></svg>