<?xml version="1.0" encoding="UTF-8"?>
<!DOCTYPE svg PUBLIC "-//W3C//DTD SVG 1.1//EN" "http://www.w3.org/Graphics/SVG/1.1/DTD/svg11.dtd">
<svg version="1.1" xmlns="http://www.w3.org/2000/svg" xmlns:xlink="http://www.w3.org/1999/xlink" x="0" y="0" width="291" height="421" viewBox="0, 0, 291, 421">
  <defs>
    <clipPath id="Clip_1">
      <path d="M288.5,2.862 L288.5,418.927 L2.5,418.927 L2.5,2.862 L288.5,2.862 z"/>
    </clipPath>
  </defs>
  <g id="Layer_1">
    <g clip-path="url(#Clip_1)">
      <path d="M205.725,251.055 L188.414,251.425 C187.469,251.202 186.582,250.995 185.762,250.806 C185.6,250.263 185.504,249.945 185.504,249.945 L178.618,248.163 C178.618,248.163 178.729,248.702 178.815,249.579 L175.073,249.579 L174.647,245.085 C207.869,246.267 232.028,230.183 246.813,206.641 L250.405,252.941 C242.862,253.547 232.569,254.373 223.235,255.115 L223.774,253.209 C218.776,251.645 205.725,251.055 205.725,251.055 M122.963,305.318 L123.661,304.351 L125.242,305.557 L127.917,303.083 L125.009,326.467 z M77.789,346.675 L67.533,347.822 L68.744,347.455 L77.726,346.495 z M277.391,258.555 C273.727,238.768 264.213,201.056 261.475,190.315 C269.176,187.786 273.51,182.191 274.588,173.118 C275.971,161.462 270.619,155.721 264.457,152.902 C267.649,139.833 277.094,97.96 272.256,78.397 C271.842,76.718 271.377,75.014 270.856,73.296 L272.973,65.981 L265.241,59.561 C264.59,58.351 263.899,57.146 263.153,55.95 L270.946,51.158 C261.7,42.856 243.399,34.906 243.399,34.906 L250.405,26.743 C250.405,26.743 242.184,22.97 229.59,22.567 C224.176,22.393 217.293,22.917 212.196,23.425 C210.002,22.9 207.727,22.41 205.368,21.96 L206.5,13.479 C206.5,13.479 192.034,14.096 181.963,15.773 C178.428,16.363 173.207,17.646 168.545,18.875 C164.819,19.001 161.309,19.29 157.975,19.711 L157.465,9.745 C157.465,9.745 153.768,10.16 142.716,16.729 C131.851,23.184 125.746,29.232 125.746,29.232 L117.787,28.347 C107.937,34.748 104.302,49.996 103.219,56.025 C102.84,56.716 102.471,57.407 102.112,58.094 C92.792,75.997 92.134,119.027 92.163,132.406 C85.472,133.678 78.861,137.989 77.469,149.71 C76.101,161.224 81.092,168.552 92.59,172.493 C98.21,206.643 119.42,236.115 159.826,243.462 L159.246,249.579 L155.506,249.579 C155.592,248.702 155.701,248.163 155.701,248.163 L148.817,249.945 C148.817,249.945 148.703,250.314 148.514,250.952 C141.888,252.491 131.289,255.075 124.224,257.409 C124.189,257.416 122.286,257.782 119.186,259.33 C118.924,259.454 118.68,259.577 118.46,259.697 C114.264,261.921 100.523,283.193 99.028,285.555 L102.283,288.038 L99.422,293.053 C95.449,292.995 91.275,292.946 87.188,292.917 C88.911,285.902 85.82,277.505 79.824,270.571 C69.479,258.596 42.962,272.682 38.813,280.553 C34.661,288.431 35.179,288.368 38.329,301.934 C38.34,301.98 38.354,302.021 38.365,302.066 C25.707,307.314 12.569,313.015 12.569,313.015 L17.192,363.06 L67.529,347.824 L76.597,353.825 L80.107,353.38 L80.571,354.719 L82.949,353.021 L109.03,349.719 L115.538,342.455 L94.438,344.814 L94.571,344.719 L94.59,344.694 L123.121,341.644 L113.111,422.139 L117.105,422.139 L116.985,433.459 L121.459,569.31 C121.413,597.7 124.733,662.077 124.733,662.077 L127.954,667.338 L124.102,678.055 L133.07,678.104 C130.578,678.988 128.322,680.179 126.605,681.791 C119.965,688.028 124.059,690.027 124.059,690.027 L155.907,690.027 L155.907,678.228 L157.889,678.239 L165.873,470.022 L167.278,468.466 L168.684,470.022 L176.668,678.239 L178.651,678.228 L178.651,690.027 L210.498,690.027 C210.498,690.027 214.592,688.028 207.951,681.791 C206.235,680.179 203.981,678.988 201.487,678.104 L210.453,678.055 L206.604,667.338 L209.823,662.077 C209.823,662.077 213.145,597.7 213.1,569.31 L217.571,433.459 L217.451,422.139 L221.207,422.139 L206.184,301.305 L206.342,301.305 L207.315,297.306 L211.551,296.305 L215.258,283.238 L247.205,275.747 C247.237,275.743 252.141,275.161 263.401,271.841 C274.237,268.646 278.711,265.687 277.391,258.555" fill="#797979"/>
      <path d="M205.725,251.055 L188.414,251.425 C187.469,251.202 186.582,250.995 185.762,250.806 C185.6,250.263 185.504,249.945 185.504,249.945 L178.618,248.163 C178.618,248.163 178.729,248.702 178.815,249.579 L175.073,249.579 L174.647,245.085 C207.869,246.267 232.028,230.183 246.813,206.641 L250.405,252.941 C242.862,253.547 232.569,254.373 223.235,255.115 L223.774,253.209 C218.776,251.645 205.725,251.055 205.725,251.055 z M122.963,305.318 L123.661,304.351 L125.242,305.557 L127.917,303.083 L125.009,326.467 L122.963,305.318 z M77.789,346.675 L67.533,347.822 L68.744,347.455 L77.726,346.495 L77.789,346.675 z M277.391,258.555 C273.727,238.768 264.213,201.056 261.475,190.315 C269.176,187.786 273.51,182.191 274.588,173.118 C275.971,161.462 270.619,155.721 264.457,152.902 C267.649,139.833 277.094,97.96 272.256,78.397 C271.842,76.718 271.377,75.014 270.856,73.296 L272.973,65.981 L265.241,59.561 C264.59,58.351 263.899,57.146 263.153,55.95 L270.946,51.158 C261.7,42.856 243.399,34.906 243.399,34.906 L250.405,26.743 C250.405,26.743 242.184,22.97 229.59,22.567 C224.176,22.393 217.293,22.917 212.196,23.425 C210.002,22.9 207.727,22.41 205.368,21.96 L206.5,13.479 C206.5,13.479 192.034,14.096 181.963,15.773 C178.428,16.363 173.207,17.646 168.545,18.875 C164.819,19.001 161.309,19.29 157.975,19.711 L157.465,9.745 C157.465,9.745 153.768,10.16 142.716,16.729 C131.851,23.184 125.746,29.232 125.746,29.232 L117.787,28.347 C107.937,34.748 104.302,49.996 103.219,56.025 C102.84,56.716 102.471,57.407 102.112,58.094 C92.792,75.997 92.134,119.027 92.163,132.406 C85.472,133.678 78.861,137.989 77.469,149.71 C76.101,161.224 81.092,168.552 92.59,172.493 C98.21,206.643 119.42,236.115 159.826,243.462 L159.246,249.579 L155.506,249.579 C155.592,248.702 155.701,248.163 155.701,248.163 L148.817,249.945 C148.817,249.945 148.703,250.314 148.514,250.952 C141.888,252.491 131.289,255.075 124.224,257.409 C124.189,257.416 122.286,257.782 119.186,259.33 C118.924,259.454 118.68,259.577 118.46,259.697 C114.264,261.921 100.523,283.193 99.028,285.555 L102.283,288.038 L99.422,293.053 C95.449,292.995 91.275,292.946 87.188,292.917 C88.911,285.902 85.82,277.505 79.824,270.571 C69.479,258.596 42.962,272.682 38.813,280.553 C34.661,288.431 35.179,288.368 38.329,301.934 C38.34,301.98 38.354,302.021 38.365,302.066 C25.707,307.314 12.569,313.015 12.569,313.015 L17.192,363.06 L67.529,347.824 L76.597,353.825 L80.107,353.38 L80.571,354.719 L82.949,353.021 L109.03,349.719 L115.538,342.455 L94.438,344.814 L94.571,344.719 L94.59,344.694 L123.121,341.644 L113.111,422.139 L117.105,422.139 L116.985,433.459 L121.459,569.31 C121.413,597.7 124.733,662.077 124.733,662.077 L127.954,667.338 L124.102,678.055 L133.07,678.104 C130.578,678.988 128.322,680.179 126.605,681.791 C119.965,688.028 124.059,690.027 124.059,690.027 L155.907,690.027 L155.907,678.228 L157.889,678.239 L165.873,470.022 L167.278,468.466 L168.684,470.022 L176.668,678.239 L178.651,678.228 L178.651,690.027 L210.498,690.027 C210.498,690.027 214.592,688.028 207.951,681.791 C206.235,680.179 203.981,678.988 201.487,678.104 L210.453,678.055 L206.604,667.338 L209.823,662.077 C209.823,662.077 213.145,597.7 213.1,569.31 L217.571,433.459 L217.451,422.139 L221.207,422.139 L206.184,301.305 L206.342,301.305 L207.315,297.306 L211.551,296.305 L215.258,283.238 L247.205,275.747 C247.237,275.743 252.141,275.161 263.401,271.841 C274.237,268.646 278.711,265.687 277.391,258.555 z" fill-opacity="0" stroke="#797979" stroke-width="8" stroke-linecap="round" stroke-linejoin="round"/>
      <path d="M213.1,569.31 L217.571,433.459 L217.25,403.302 L117.306,403.302 L116.985,433.459 L121.459,569.31 C121.413,597.7 124.733,662.077 124.733,662.077 L127.954,667.338 L124.102,678.055 L157.889,678.239 L165.873,470.022 L167.278,468.466 L168.684,470.022 L176.668,678.239 L210.453,678.055 L206.604,667.338 L209.823,662.077 C209.823,662.077 213.145,597.7 213.1,569.31" fill="#EDE6C0"/>
      <path d="M213.1,569.31 L217.571,433.459 L217.25,403.302 L117.306,403.302 L116.985,433.459 L121.459,569.31 C121.413,597.7 124.733,662.077 124.733,662.077 L127.954,667.338 L124.102,678.055 L157.889,678.239 L165.873,470.022 L167.278,468.466 L168.684,470.022 L176.668,678.239 L210.453,678.055 L206.604,667.338 L209.823,662.077 C209.823,662.077 213.145,597.7 213.1,569.31 z" fill-opacity="0" stroke="#797979" stroke-width="4" stroke-linecap="round" stroke-linejoin="round"/>
      <path d="M272.256,78.397 C266.483,55.049 251.719,27.063 192.936,20.048 L176.28,161.108 L263.453,156.887 C263.453,156.887 278.032,101.746 272.256,78.397 M102.112,58.094 C91.006,79.428 92.199,136.451 92.199,136.451 L175.932,161.066 L192.936,20.048 C134.154,13.034 113.219,36.76 102.112,58.094" fill="#A1967C"/>
      <path d="M272.256,78.397 C266.483,55.049 251.719,27.063 192.936,20.048 L176.28,161.108 L263.453,156.887 C263.453,156.887 278.032,101.746 272.256,78.397 z M102.112,58.094 C91.006,79.428 92.199,136.451 92.199,136.451 L175.932,161.066 L192.936,20.048 C134.154,13.034 113.219,36.76 102.112,58.094 z" fill-opacity="0" stroke="#797979" stroke-width="4" stroke-linecap="round" stroke-linejoin="round"/>
      <path d="M102.825,58.548 C102.825,58.548 105.375,36.414 117.787,28.347 L125.746,29.232 C125.746,29.232 131.851,23.184 142.716,16.729 C153.768,10.16 157.465,9.745 157.465,9.745 L158.08,21.773 C158.08,21.773 174.147,17.077 181.963,15.773 C192.034,14.096 206.5,13.479 206.5,13.479 L205.063,24.242 C205.063,24.242 219.756,22.25 229.59,22.567 C242.184,22.97 250.405,26.743 250.405,26.743 L243.399,34.906 C243.399,34.906 261.7,42.856 270.946,51.158 L261.854,56.749 L272.973,65.981 L269.604,77.626" fill="#A1967C"/>
      <path d="M102.825,58.548 C102.825,58.548 105.375,36.414 117.787,28.347 L125.746,29.232 C125.746,29.232 131.851,23.184 142.716,16.729 C153.768,10.16 157.465,9.745 157.465,9.745 L158.08,21.773 C158.08,21.773 174.147,17.077 181.963,15.773 C192.034,14.096 206.5,13.479 206.5,13.479 L205.063,24.242 C205.063,24.242 219.756,22.25 229.59,22.567 C242.184,22.97 250.405,26.743 250.405,26.743 L243.399,34.906 C243.399,34.906 261.7,42.856 270.946,51.158 L261.854,56.749 L272.973,65.981 L269.604,77.626" fill-opacity="0" stroke="#797979" stroke-width="4" stroke-linecap="round" stroke-linejoin="round"/>
      <path d="M216.446,259.697 C209.451,255.903 180.323,249.579 180.323,249.579 L154.584,249.579 C154.584,249.579 125.453,255.903 118.46,259.697 L128.562,301.305 L206.342,301.305 z" fill="#FFA5A2"/>
      <path d="M216.446,259.697 C209.451,255.903 180.323,249.579 180.323,249.579 L154.584,249.579 C154.584,249.579 125.453,255.903 118.46,259.697 L128.562,301.305 L206.342,301.305 L216.446,259.697 z" fill-opacity="0" stroke="#797979" stroke-width="4" stroke-linecap="round" stroke-linejoin="round"/>
      <path d="M180.032,249.579 L175.073,249.579 L173.649,234.547 L167.16,230.327 L160.67,234.547 L159.246,249.579 L154.289,249.579 C150.44,257.08 162.051,264.575 162.051,264.575 L167.16,271.93 L172.27,264.575 C172.27,264.575 183.881,257.08 180.032,249.579" fill="#FFEFD9"/>
      <path d="M180.032,249.579 L175.073,249.579 L173.649,234.547 L167.16,230.327 L160.67,234.547 L159.246,249.579 L154.289,249.579 C150.44,257.08 162.051,264.575 162.051,264.575 L167.16,271.93 L172.27,264.575 C172.27,264.575 183.881,257.08 180.032,249.579 z" fill-opacity="0" stroke="#797979" stroke-width="4" stroke-linecap="round" stroke-linejoin="round"/>
      <path d="M118.46,259.697 L74.403,336.888 L80.571,354.719 L94.571,344.719 L127.238,299.386 z" fill="#FFEFD9"/>
      <path d="M118.46,259.697 L74.403,336.888 L80.571,354.719 L94.571,344.719 L127.238,299.386 L118.46,259.697 z" fill-opacity="0" stroke="#797979" stroke-width="4" stroke-linecap="round" stroke-linejoin="round"/>
      <path d="M124.231,257.409 C124.231,257.409 122.028,257.805 118.46,259.697 C114.264,261.921 100.523,283.193 99.028,285.555 L125.242,305.557 L132.18,299.14" fill="#FFA5A2"/>
      <path d="M124.231,257.409 C124.231,257.409 122.028,257.805 118.46,259.697 C114.264,261.921 100.523,283.193 99.028,285.555 L125.242,305.557 L132.18,299.14" fill-opacity="0" stroke="#797979" stroke-width="4" stroke-linecap="round" stroke-linejoin="round"/>
      <path d="M199.891,256.905 C201.391,256.905 261.391,252.055 261.391,252.055 L261.086,272.492 L200.391,286.723 z" fill="#FFEFD9"/>
      <path d="M199.891,256.905 C201.391,256.905 261.391,252.055 261.391,252.055 L261.086,272.492 L200.391,286.723 L199.891,256.905 z" fill-opacity="0" stroke="#797979" stroke-width="4" stroke-linecap="round" stroke-linejoin="round"/>
      <path d="M250.41,253.028 L245.641,191.555 L260.725,187.388 C260.725,187.388 273.09,235.326 277.391,258.555 C278.711,265.687 274.237,268.646 263.401,271.841 C252.104,275.172 247.201,275.747 247.201,275.747" fill="#FFEFD9"/>
      <path d="M250.41,253.028 L245.641,191.555 L260.725,187.388 C260.725,187.388 273.09,235.326 277.391,258.555 C278.711,265.687 274.237,268.646 263.401,271.841 C252.104,275.172 247.201,275.747 247.201,275.747" fill-opacity="0" stroke="#797979" stroke-width="4" stroke-linecap="round" stroke-linejoin="round"/>
      <path d="M185.504,251.488 L205.725,251.055 C205.725,251.055 218.776,251.645 223.774,253.209 L211.551,296.305 L199.551,299.14" fill="#FFA5A2"/>
      <path d="M185.504,251.488 L205.725,251.055 C205.725,251.055 218.776,251.645 223.774,253.209 L211.551,296.305 L199.551,299.14" fill-opacity="0" stroke="#797979" stroke-width="4" stroke-linecap="round" stroke-linejoin="round"/>
      <path d="M128.76,296.305 L113.111,422.139 L221.207,422.139 L205.563,296.305" fill="#FFA5A2"/>
      <path d="M128.76,296.305 L113.111,422.139 L221.207,422.139 L205.563,296.305" fill-opacity="0" stroke="#797979" stroke-width="4" stroke-linecap="round" stroke-linejoin="round"/>
      <path d="M155.701,248.163 C155.701,248.163 153.325,259.668 162.051,263.159 C162.051,263.159 146.85,276.897 144.047,275.84 C141.244,274.784 148.817,249.945 148.817,249.945 z" fill="#FFA5A2"/>
      <path d="M155.701,248.163 C155.701,248.163 153.325,259.668 162.051,263.159 C162.051,263.159 146.85,276.897 144.047,275.84 C141.244,274.784 148.817,249.945 148.817,249.945 L155.701,248.163 z" fill-opacity="0" stroke="#797979" stroke-width="4" stroke-linecap="round" stroke-linejoin="round"/>
      <path d="M178.618,248.163 C178.618,248.163 180.994,259.668 172.27,263.159 C172.27,263.159 187.471,276.897 190.274,275.84 C193.076,274.784 185.504,249.945 185.504,249.945 z" fill="#FFA5A2"/>
      <path d="M178.618,248.163 C178.618,248.163 180.994,259.668 172.27,263.159 C172.27,263.159 187.471,276.897 190.274,275.84 C193.076,274.784 185.504,249.945 185.504,249.945 L178.618,248.163 z" fill-opacity="0" stroke="#797979" stroke-width="4" stroke-linecap="round" stroke-linejoin="round"/>
      <path d="M162.051,263.159 L167.16,270.86 L172.27,263.159" fill-opacity="0" stroke="#797979" stroke-width="4" stroke-linecap="round" stroke-linejoin="round"/>
      <path d="M167.16,270.86 L167.16,280.893" fill="#FFEFD9"/>
      <path d="M167.16,270.86 L167.16,280.893" fill-opacity="0" stroke="#797979" stroke-width="4" stroke-linecap="round" stroke-linejoin="round"/>
      <path d="M153.576,271.725 C153.576,271.725 152.985,291.944 166.651,343.281" fill="#FFFFFF"/>
      <path d="M153.576,271.725 C153.576,271.725 152.985,291.944 166.651,343.281" fill-opacity="0" stroke="#797979" stroke-width="4" stroke-linecap="round" stroke-linejoin="round"/>
      <path d="M180.744,271.725 C180.744,271.725 181.336,291.944 167.668,343.281" fill="#FFFFFF"/>
      <path d="M180.744,271.725 C180.744,271.725 181.336,291.944 167.668,343.281" fill-opacity="0" stroke="#797979" stroke-width="4" stroke-linecap="round" stroke-linejoin="round"/>
      <path d="M181.985,370.904 L152.337,370.904 L152.337,351.238 L181.985,351.238 z" fill="#FFFFFF"/>
      <path d="M181.985,370.904 L152.336,370.904 L152.336,351.238 L181.985,351.238 L181.985,370.904 z" fill-opacity="0" stroke="#797979" stroke-width="4" stroke-linecap="round" stroke-linejoin="round"/>
      <path d="M168.711,350.904 L165.609,350.904 L165.609,343.281 L168.711,343.281 z" fill="#FFFFFF"/>
      <path d="M168.711,350.904 L165.61,350.904 L165.61,343.281 L168.711,343.281 L168.711,350.904 z" fill-opacity="0" stroke="#797979" stroke-width="4" stroke-linecap="round" stroke-linejoin="round"/>
      <path d="M107.729,133.53 C107.729,133.53 80.47,124.443 77.469,149.71 C75.704,164.572 84.521,172.462 104.267,175.095" fill="#FFEFD9"/>
      <path d="M107.729,133.53 C107.729,133.53 80.47,124.443 77.469,149.71 C75.704,164.572 84.521,172.462 104.267,175.095" fill-opacity="0" stroke="#797979" stroke-width="4" stroke-linecap="round" stroke-linejoin="round"/>
      <path d="M87.956,152.341 C87.956,152.341 91.818,151.085 95.307,151.522" fill="#FFEFD9"/>
      <path d="M87.956,152.341 C87.956,152.341 91.818,151.085 95.307,151.522" fill-opacity="0" stroke="#797979" stroke-width="4" stroke-linecap="round" stroke-linejoin="round"/>
      <path d="M248.957,150.301 C248.957,150.301 277.588,147.853 274.588,173.118 C272.823,187.981 262.399,193.586 242.586,191.522" fill="#FFEFD9"/>
      <path d="M248.957,150.301 C248.957,150.301 277.588,147.853 274.588,173.118 C272.823,187.981 262.399,193.586 242.586,191.522" fill-opacity="0" stroke="#797979" stroke-width="4" stroke-linecap="round" stroke-linejoin="round"/>
      <path d="M263.776,173.221 C263.776,173.221 260.313,171.095 256.819,170.701" fill="#FFEFD9"/>
      <path d="M263.776,173.221 C263.776,173.221 260.313,171.095 256.819,170.701" fill-opacity="0" stroke="#797979" stroke-width="4" stroke-linecap="round" stroke-linejoin="round"/>
      <path d="M263.848,151.873 C260.319,203.063 227.201,251.679 166.17,244.432 C105.424,237.216 84.524,182.681 92.763,132.288 C100.793,83.2 106.098,34.432 189.926,44.387 C273.752,54.341 267.252,102.485 263.848,151.873" fill="#FFEFD9"/>
      <path d="M263.848,151.873 C260.319,203.063 227.201,251.679 166.17,244.432 C105.424,237.216 84.524,182.681 92.763,132.288 C100.793,83.2 106.098,34.432 189.926,44.387 C273.752,54.341 267.252,102.485 263.848,151.873 z" fill-opacity="0" stroke="#797979" stroke-width="4" stroke-linecap="round" stroke-linejoin="round"/>
      <path d="M263.998,150.231 C263.998,150.231 262.717,95.051 255.43,81.591 C255.43,81.591 232.268,62.42 188.502,57.198 C144.74,51.976 117.716,65.158 117.716,65.158 C107.467,76.526 93.236,129.854 93.236,129.854 C93.236,129.854 83.699,22.662 191.094,35.478 C298.491,48.293 263.998,150.231 263.998,150.231" fill="#A1967C"/>
      <path d="M93.236,129.854 C93.236,129.854 107.467,76.526 117.716,65.158 C117.716,65.158 144.74,51.976 188.502,57.198 C232.268,62.42 255.43,81.591 255.43,81.591 C262.717,95.051 263.998,150.231 263.998,150.231" fill-opacity="0" stroke="#797979" stroke-width="4" stroke-linecap="round" stroke-linejoin="round"/>
      <path d="M221.471,145.763 C220.465,153.323 217.133,159.117 214.03,158.702 C210.926,158.289 209.227,151.825 210.235,144.265 C211.243,136.705 214.573,130.912 217.676,131.325 C220.78,131.739 222.479,138.201 221.471,145.763" fill="#797979"/>
      <path d="M138.38,134.693 C137.373,142.253 139.072,148.716 142.176,149.13 C145.278,149.543 148.61,143.75 149.618,136.19 C150.625,128.63 148.926,122.166 145.823,121.753 C142.72,121.339 139.387,127.133 138.38,134.693" fill="#797979"/>
      <path d="M170.155,183.91 C170.155,183.91 168.039,189.682 173.289,190.046" fill-opacity="0" stroke="#797979" stroke-width="4" stroke-linecap="round" stroke-linejoin="round"/>
      <path d="M148.594,217.105 C148.594,217.105 158.258,206.958 170.813,208.631" fill-opacity="0" stroke="#797979" stroke-width="4" stroke-linecap="round" stroke-linejoin="round"/>
      <path d="M190.039,222.626 C190.039,222.626 183.369,210.304 170.813,208.631" fill-opacity="0" stroke="#797979" stroke-width="4" stroke-linecap="round" stroke-linejoin="round"/>
      <path d="M136.807,101.602 C141.432,102.218 152.27,101.644 156.586,99.529" fill-opacity="0" stroke="#797979" stroke-width="4" stroke-linecap="round" stroke-linejoin="round"/>
      <path d="M231.653,114.237 C227.028,113.62 216.717,110.23 213.106,107.058" fill-opacity="0" stroke="#797979" stroke-width="4" stroke-linecap="round" stroke-linejoin="round"/>
      <path d="M17.192,363.06 L68.744,347.455 L126.442,341.289 L66.518,330.638 z" fill="#AF9C7F"/>
      <path d="M17.192,363.06 L68.744,347.455 L126.442,341.289 L66.518,330.638 L17.192,363.06 z" fill-opacity="0" stroke="#797979" stroke-width="4" stroke-linecap="round" stroke-linejoin="round"/>
      <path d="M17.192,363.06 C17.192,363.06 60.729,341.282 66.53,340.483 C72.336,339.685 126.442,341.289 126.442,341.289 L121.819,293.487 C121.819,293.487 67.133,292.114 60.646,293.536 C54.159,294.966 12.569,313.015 12.569,313.015 z" fill="#AF9C7F"/>
      <path d="M17.192,363.06 C17.192,363.06 60.729,341.282 66.53,340.483 C72.336,339.685 126.442,341.289 126.442,341.289 L121.819,293.487 C121.819,293.487 67.133,292.114 60.646,293.536 C54.159,294.966 12.569,313.015 12.569,313.015 L17.192,363.06 z" fill-opacity="0" stroke="#797979" stroke-width="4" stroke-linecap="round" stroke-linejoin="round"/>
      <path d="M61.502,301.051 L66.222,332.819" fill="#AF9C7F"/>
      <path d="M61.502,301.051 L66.222,332.819" fill-opacity="0" stroke="#797979" stroke-width="4" stroke-linecap="round" stroke-linejoin="round"/>
      <path d="M67.528,347.823 L76.597,353.825 L109.03,349.719 L115.538,342.455 z" fill="#AF9C7F"/>
      <path d="M67.528,347.823 L76.597,353.825 L109.03,349.719 L115.538,342.455 L67.528,347.823 z" fill-opacity="0" stroke="#797979" stroke-width="4" stroke-linecap="round" stroke-linejoin="round"/>
      <path d="M38.813,280.553 C42.962,272.682 69.479,258.596 79.824,270.571 C90.177,282.544 91.9,298.886 75.061,304.929 C58.228,310.969 41.407,315.217 38.329,301.934 C35.179,288.368 34.661,288.431 38.813,280.553" fill="#FCEDD7"/>
      <path d="M38.813,280.553 C42.962,272.682 69.479,258.596 79.824,270.571 C90.177,282.544 91.9,298.886 75.061,304.929 C58.228,310.969 41.407,315.217 38.329,301.934 C35.179,288.368 34.661,288.431 38.813,280.553 z" fill-opacity="0" stroke="#797979" stroke-width="4" stroke-linecap="round" stroke-linejoin="round"/>
      <path d="M61.567,385.991 L62.897,388.846 L61.15,388.69 z" fill="#FCEDD7"/>
      <path d="M61.567,385.991 L62.897,388.846 L61.15,388.69 L61.567,385.991 z" fill-opacity="0" stroke="#797979" stroke-width="4" stroke-linecap="round" stroke-linejoin="round"/>
      <path d="M69.11,364.404 L69.11,367.715" fill="#FCEDD7"/>
      <path d="M69.11,364.404 L69.11,367.715" fill-opacity="0" stroke="#797979" stroke-width="4" stroke-linecap="round" stroke-linejoin="round"/>
      <path d="M87.641,370.918 L87.87,371.58" fill="#FCEDD7"/>
      <path d="M87.641,370.918 L87.87,371.58" fill-opacity="0" stroke="#797979" stroke-width="4" stroke-linecap="round" stroke-linejoin="round"/>
      <path d="M79.233,402.121 L79.78,404.475" fill="#FCEDD7"/>
      <path d="M79.233,402.121 L79.78,404.475" fill-opacity="0" stroke="#797979" stroke-width="4" stroke-linecap="round" stroke-linejoin="round"/>
      <path d="M27.446,281.166 C25.653,271.137 34.113,255.833 48.113,255.833" fill-opacity="0" stroke="#797979" stroke-width="4" stroke-linecap="round" stroke-linejoin="round"/>
      <path d="M19.446,270.499 C17.319,260.47 27.319,248.47 36.78,249.166" fill-opacity="0" stroke="#797979" stroke-width="4" stroke-linecap="round" stroke-linejoin="round"/>
    </g>
  </g>
</svg>
