<?xml version="1.0" encoding="UTF-8"?>
<!DOCTYPE svg PUBLIC "-//W3C//DTD SVG 1.1//EN" "http://www.w3.org/Graphics/SVG/1.1/DTD/svg11.dtd">
<svg version="1.1" xmlns="http://www.w3.org/2000/svg" xmlns:xlink="http://www.w3.org/1999/xlink" x="0" y="0" width="223" height="377" viewBox="0, 0, 223, 377">
  <defs>
    <clipPath id="Clip_1">
      <path d="M220.398,1.862 L220.398,373.927 L1.572,373.927 L1.572,1.862 L220.398,1.862 z"/>
    </clipPath>
  </defs>
  <g id="Layer_1">
    <g clip-path="url(#Clip_1)">
      <path d="M195.617,179.732 C207.503,177.174 213.326,170.486 213.326,158.889 C213.326,146.729 206.897,141.715 200.185,139.786 C200.177,139.622 200.171,139.458 200.165,139.295 C200.685,135.753 202.39,123.451 204.896,98.385 C207.34,73.927 200.793,36.348 175.268,30.156 C175.268,30.156 166.741,18.96 153.614,15.813 C145.042,13.149 134.076,10.184 110.781,10.184 C87.486,10.184 58.157,21.387 53.98,29.77 C27.154,34.655 20.141,73.385 22.641,98.385 C25.333,125.32 27.101,137.517 27.468,139.943 C20.939,141.976 14.822,147.029 14.822,158.889 C14.822,170.485 20.642,177.173 32.525,179.731 C41.99,212.488 65.935,238.968 105.837,242.165 L85.585,251.334 C77.553,253.367 68.798,255.835 65.368,257.697 L65.611,258.693 C65.533,258.734 65.442,258.775 65.368,258.815 C65.128,258.945 64.55,259.8 63.712,261.237 L55.647,264.888 L58.456,271.094 C54.456,278.971 49.285,289.732 44.402,300.636 C43.946,301.089 43.495,301.552 43.056,302.029 C40.543,304.749 39.536,308.11 39.574,311.714 C34.255,324.292 30.025,335.781 29.263,341.712 C27.517,355.305 43.657,361.13 52.64,354.053 C55.373,351.9 58.697,347.525 62.091,342.049 C64.173,342.275 65.913,342.199 67.605,341.834 C66.626,354.12 65.632,366.437 64.835,375.555 C64.199,382.828 62.29,408.536 60.064,439.072 C55.845,496.906 56.158,572.055 56.158,572.055 L58.21,572.055 L54.646,660.077 L57.867,665.338 L54.015,676.055 L62.983,676.104 C60.491,676.988 58.236,678.179 56.518,679.791 C49.877,686.028 53.972,688.027 53.972,688.027 L85.819,688.027 L85.819,676.228 L87.802,676.239 L100.306,572.055 L112.042,572.055 L114.349,533.723 L116.656,572.055 L128.089,572.055 L140.593,676.239 L142.576,676.228 L142.576,688.027 L174.424,688.027 C174.424,688.027 178.519,686.028 171.878,679.791 C170.161,678.179 167.906,676.988 165.413,676.104 L174.38,676.055 L170.529,665.338 L173.749,660.077 L170.185,572.055 L172.54,572.055 C172.54,572.055 172.812,496.147 168.57,437.851 C166.335,407.141 164.423,381.319 163.788,374.056 C163.019,365.243 162.072,353.611 161.136,341.96 C162.641,342.22 164.212,342.248 166.048,342.049 C169.443,347.525 172.767,351.9 175.499,354.053 C184.483,361.13 200.622,355.305 198.876,341.712 C198.115,335.781 193.884,324.292 188.567,311.714 C188.603,308.111 187.597,304.749 185.084,302.029 C184.644,301.552 184.194,301.089 183.737,300.636 C174.757,280.583 164.808,261.03 162.954,258.984 L163.355,257.697 C161.023,256.431 156.224,254.885 150.868,253.385 L148.251,246.072 L142.092,248.277 L138.116,239.492 C168.618,231.425 187.475,207.905 195.617,179.732" fill="#797979"/>
      <path d="M195.617,179.732 C207.503,177.174 213.326,170.486 213.326,158.889 C213.326,146.729 206.897,141.715 200.185,139.786 C200.177,139.622 200.171,139.458 200.165,139.295 C200.685,135.753 202.39,123.451 204.896,98.385 C207.34,73.927 200.793,36.348 175.268,30.156 C175.268,30.156 166.741,18.96 153.614,15.813 C145.042,13.149 134.076,10.184 110.781,10.184 C87.486,10.184 58.157,21.387 53.98,29.77 C27.154,34.655 20.141,73.385 22.641,98.385 C25.333,125.32 27.101,137.517 27.468,139.943 C20.939,141.976 14.822,147.029 14.822,158.889 C14.822,170.485 20.642,177.173 32.525,179.731 C41.99,212.488 65.935,238.968 105.837,242.165 L85.585,251.334 C77.553,253.367 68.798,255.835 65.368,257.697 L65.611,258.693 C65.533,258.734 65.442,258.775 65.368,258.815 C65.128,258.945 64.55,259.8 63.712,261.237 L55.647,264.888 L58.456,271.094 C54.456,278.971 49.285,289.732 44.402,300.636 C43.946,301.089 43.495,301.552 43.056,302.029 C40.543,304.749 39.536,308.11 39.574,311.714 C34.255,324.292 30.025,335.781 29.263,341.712 C27.517,355.305 43.657,361.13 52.64,354.053 C55.373,351.9 58.697,347.525 62.091,342.049 C64.173,342.275 65.913,342.199 67.605,341.834 C66.626,354.12 65.632,366.437 64.835,375.555 C64.199,382.828 62.29,408.536 60.064,439.072 C55.845,496.906 56.158,572.055 56.158,572.055 L58.21,572.055 L54.646,660.077 L57.867,665.338 L54.015,676.055 L62.983,676.104 C60.491,676.988 58.236,678.179 56.518,679.791 C49.877,686.028 53.972,688.027 53.972,688.027 L85.819,688.027 L85.819,676.228 L87.802,676.239 L100.306,572.055 L112.042,572.055 L114.349,533.723 L116.656,572.055 L128.089,572.055 L140.593,676.239 L142.576,676.228 L142.576,688.027 L174.424,688.027 C174.424,688.027 178.519,686.028 171.878,679.791 C170.161,678.179 167.906,676.988 165.413,676.104 L174.38,676.055 L170.529,665.338 L173.749,660.077 L170.185,572.055 L172.54,572.055 C172.54,572.055 172.812,496.147 168.57,437.851 C166.335,407.141 164.423,381.319 163.788,374.056 C163.019,365.243 162.072,353.611 161.136,341.96 C162.641,342.22 164.212,342.248 166.048,342.049 C169.443,347.525 172.767,351.9 175.499,354.053 C184.483,361.13 200.622,355.305 198.876,341.712 C198.115,335.781 193.884,324.292 188.567,311.714 C188.603,308.111 187.597,304.749 185.084,302.029 C184.644,301.552 184.194,301.089 183.737,300.636 C174.757,280.583 164.808,261.03 162.954,258.984 L163.355,257.697 C161.023,256.431 156.224,254.885 150.868,253.385 L148.251,246.072 L142.092,248.277 L138.116,239.492 C168.618,231.425 187.475,207.905 195.617,179.732 z" fill-opacity="0" stroke="#797979" stroke-width="8" stroke-linecap="round" stroke-linejoin="round"/>
      <path d="M170.529,665.338 L173.749,660.077 L164.491,431.459 L164.169,401.302 L64.226,401.302 L63.905,431.459 L54.646,660.077 L57.867,665.338 L54.015,676.055 L87.802,676.239 L112.792,468.022 L114.198,466.466 L115.603,468.022 L140.593,676.239 L174.38,676.055 z" fill="#A2A2A2"/>
      <path d="M170.529,665.338 L173.749,660.077 L164.491,431.459 L164.169,401.302 L64.226,401.302 L63.905,431.459 L54.646,660.077 L57.867,665.338 L54.015,676.055 L87.802,676.239 L112.792,468.022 L114.198,466.466 L115.603,468.022 L140.593,676.239 L174.38,676.055 L170.529,665.338 z" fill-opacity="0" stroke="#797979" stroke-width="4" stroke-linecap="round" stroke-linejoin="round"/>
      <path d="M175.268,30.156 C175.268,30.156 166.741,18.96 153.614,15.813 C145.042,13.149 134.076,10.184 110.781,10.184 C87.486,10.184 58.157,21.387 53.98,29.77 C27.154,34.655 20.141,73.385 22.641,98.385 C25.679,128.771 27.54,140.412 27.54,140.412 L27.595,142.909 L39.128,134.668 L113.769,132.136 L188.409,134.668 L199.942,142.909 L199.996,140.412 C199.996,140.412 201.858,128.771 204.896,98.385 C207.34,73.927 200.793,36.348 175.268,30.156" fill="#9B8C81"/>
      <path d="M175.268,30.156 C175.268,30.156 166.741,18.96 153.614,15.813 C145.042,13.149 134.076,10.184 110.781,10.184 C87.486,10.184 58.157,21.387 53.98,29.77 C27.154,34.655 20.141,73.385 22.641,98.385 C25.679,128.771 27.54,140.412 27.54,140.412 L27.595,142.909 L39.128,134.668 L113.769,132.136 L188.409,134.668 L199.942,142.909 L199.996,140.412 C199.996,140.412 201.858,128.771 204.896,98.385 C207.34,73.927 200.793,36.348 175.268,30.156 z" fill-opacity="0" stroke="#797979" stroke-width="4" stroke-linecap="round" stroke-linejoin="round"/>
      <path d="M163.355,257.697 C156.361,253.903 127.232,247.579 127.232,247.579 L101.492,247.579 C101.492,247.579 72.362,253.903 65.368,257.697 L75.47,299.305 L150.416,299.305 z" fill="#FFFFFF"/>
      <path d="M163.355,257.697 C156.361,253.903 127.232,247.579 127.232,247.579 L101.492,247.579 C101.492,247.579 72.362,253.903 65.368,257.697 L75.47,299.305 L150.416,299.305 L163.355,257.697 z" fill-opacity="0" stroke="#797979" stroke-width="4" stroke-linecap="round" stroke-linejoin="round"/>
      <path d="M126.941,247.579 L121.982,247.579 L120.559,232.547 L114.07,228.327 L107.579,232.547 L106.157,247.579 L101.199,247.579 C97.349,255.08 108.96,262.575 108.96,262.575 L114.07,269.93 L119.179,262.575 C119.179,262.575 130.79,255.08 126.941,247.579" fill="#FFEFD9"/>
      <path d="M126.941,247.579 L121.982,247.579 L120.559,232.547 L114.07,228.327 L107.579,232.547 L106.157,247.579 L101.199,247.579 C97.349,255.08 108.96,262.575 108.96,262.575 L114.07,269.93 L119.179,262.575 C119.179,262.575 130.79,255.08 126.941,247.579 z" fill-opacity="0" stroke="#797979" stroke-width="4" stroke-linecap="round" stroke-linejoin="round"/>
      <path d="M101.491,248.698 C101.491,248.698 72.361,255.021 65.368,258.815 C63.117,260.035 31.483,324.436 29.263,341.712 C27.517,355.305 43.657,361.13 52.64,354.053 C61.334,347.203 76.004,317.893 79.902,302.073" fill="#FFFFFF"/>
      <path d="M101.491,248.698 C101.491,248.698 72.361,255.021 65.368,258.815 C63.117,260.035 31.483,324.436 29.263,341.712 C27.517,355.305 43.657,361.13 52.64,354.053 C61.334,347.203 76.004,317.893 79.902,302.073" fill-opacity="0" stroke="#797979" stroke-width="4" stroke-linecap="round" stroke-linejoin="round"/>
      <path d="M126.649,248.698 C126.649,248.698 155.779,255.021 162.771,258.815 C165.023,260.035 196.657,324.436 198.876,341.712 C200.622,355.305 184.483,361.13 175.499,354.053 C166.806,347.203 152.135,317.893 148.238,302.073" fill="#FFFFFF"/>
      <path d="M126.649,248.698 C126.649,248.698 155.779,255.021 162.771,258.815 C165.023,260.035 196.657,324.436 198.876,341.712 C200.622,355.305 184.483,361.13 175.499,354.053 C166.806,347.203 152.135,317.893 148.238,302.073" fill-opacity="0" stroke="#797979" stroke-width="4" stroke-linecap="round" stroke-linejoin="round"/>
      <path d="M71.501,294.305 C71.105,296.054 67.138,349.183 64.835,375.555 C64.199,382.828 62.29,408.536 60.064,439.072 C55.845,496.906 56.158,572.055 56.158,572.055 L112.042,572.055 L114.349,533.723 L116.656,572.055 L172.54,572.055 C172.54,572.055 172.812,496.147 168.57,437.851 C166.335,407.141 164.423,381.319 163.788,374.056 C161.484,347.684 157.593,296.054 157.197,294.305" fill="#FFFFFF"/>
      <path d="M71.501,294.305 C71.105,296.054 67.138,349.183 64.835,375.555 C64.199,382.828 62.29,408.536 60.064,439.072 C55.845,496.906 56.158,572.055 56.158,572.055 L112.042,572.055 L114.349,533.723 L116.656,572.055 L172.54,572.055 C172.54,572.055 172.812,496.147 168.57,437.851 C166.335,407.141 164.423,381.319 163.788,374.056 C161.484,347.684 157.593,296.054 157.197,294.305" fill-opacity="0" stroke="#797979" stroke-width="4" stroke-linecap="round" stroke-linejoin="round"/>
      <path d="M114.056,321.531 L133.529,256.322 L113.931,258.175 L94.585,256.322 z" fill="#FFFFFF"/>
      <path d="M114.056,321.531 L133.529,256.322 L113.931,258.175 L94.585,256.322 L114.056,321.531 z" fill-opacity="0" stroke="#797979" stroke-width="4" stroke-linecap="round" stroke-linejoin="round"/>
      <path d="M122.265,245.594 C122.265,245.594 120.343,253.741 114.056,259.197 C114.056,259.197 119.82,256.542 121.915,258.45 C124.011,260.359 132.396,265.607 132.396,265.607 L128.202,248.901 z" fill="#FFFFFF"/>
      <path d="M122.265,245.594 C122.265,245.594 120.343,253.741 114.056,259.197 C114.056,259.197 119.82,256.542 121.915,258.45 C124.011,260.359 132.396,265.607 132.396,265.607 L128.202,248.901 L122.265,245.594 z" fill-opacity="0" stroke="#797979" stroke-width="4" stroke-linecap="round" stroke-linejoin="round"/>
      <path d="M105.847,245.594 C105.847,245.594 107.769,253.741 114.056,259.197 C114.056,259.197 108.292,256.542 106.197,258.45 C104.101,260.359 95.718,265.607 95.718,265.607 L99.909,248.901 z" fill="#FFFFFF"/>
      <path d="M105.847,245.594 C105.847,245.594 107.769,253.741 114.056,259.197 C114.056,259.197 108.292,256.542 106.197,258.45 C104.101,260.359 95.718,265.607 95.718,265.607 L99.909,248.901 L105.847,245.594 z" fill-opacity="0" stroke="#797979" stroke-width="4" stroke-linecap="round" stroke-linejoin="round"/>
      <path d="M119.074,268.298 L114.056,267.939 L109.038,268.298 L105.695,301.728 L114.056,325.409 L122.417,301.728 z" fill="#84ADDE"/>
      <path d="M119.074,268.298 L114.056,267.939 L109.038,268.298 L105.695,301.728 L114.056,325.409 L122.417,301.728 L119.074,268.298 z" fill-opacity="0" stroke="#797979" stroke-width="4" stroke-linecap="round" stroke-linejoin="round"/>
      <path d="M108.441,258.166 L109.081,267.666 C109.081,267.666 111.675,269.541 114.056,269.541 C116.437,269.541 119.031,267.666 119.031,267.666 L119.669,258.166 z" fill="#84ADDE"/>
      <path d="M108.441,258.166 L109.081,267.666 C109.081,267.666 111.675,269.541 114.056,269.541 C116.437,269.541 119.031,267.666 119.031,267.666 L119.669,258.166 L108.441,258.166 z" fill-opacity="0" stroke="#797979" stroke-width="4" stroke-linecap="round" stroke-linejoin="round"/>
      <path d="M116.097,366.466 C116.097,367.595 115.183,368.507 114.056,368.507 C112.929,368.507 112.015,367.595 112.015,366.466 C112.015,365.339 112.929,364.425 114.056,364.425 C115.183,364.425 116.097,365.339 116.097,366.466" fill="#FFFFFF"/>
      <path d="M116.097,366.466 C116.097,367.595 115.183,368.507 114.056,368.507 C112.929,368.507 112.015,367.595 112.015,366.466 C112.015,365.339 112.929,364.425 114.056,364.425 C115.183,364.425 116.097,365.339 116.097,366.466 z" fill-opacity="0" stroke="#797979" stroke-width="4" stroke-linecap="round" stroke-linejoin="round"/>
      <path d="M116.097,412.658 C116.097,413.785 115.183,414.699 114.056,414.699 C112.929,414.699 112.015,413.785 112.015,412.658 C112.015,411.53 112.929,410.616 114.056,410.616 C115.183,410.616 116.097,411.53 116.097,412.658" fill="#FFFFFF"/>
      <path d="M116.097,412.658 C116.097,413.785 115.183,414.699 114.056,414.699 C112.929,414.699 112.015,413.785 112.015,412.658 C112.015,411.53 112.929,410.616 114.056,410.616 C115.183,410.616 116.097,411.53 116.097,412.658 z" fill-opacity="0" stroke="#797979" stroke-width="4" stroke-linecap="round" stroke-linejoin="round"/>
      <path d="M99.708,248.901 L88.722,259.926 L96.722,265.926 L88.39,269.926 L114.056,340.303 z" fill="#FFFFFF"/>
      <path d="M99.708,248.901 L88.722,259.926 L96.722,265.926 L88.39,269.926 L114.056,340.303 L99.708,248.901 z" fill-opacity="0" stroke="#797979" stroke-width="4" stroke-linecap="round" stroke-linejoin="round"/>
      <path d="M128.406,248.901 L139.39,259.926 L131.39,265.926 L139.724,269.926 L114.056,340.303 z" fill="#FFFFFF"/>
      <path d="M128.406,248.901 L139.39,259.926 L131.39,265.926 L139.724,269.926 L114.056,340.303 L128.406,248.901 z" fill-opacity="0" stroke="#797979" stroke-width="4" stroke-linecap="round" stroke-linejoin="round"/>
      <path d="M149.079,313.136 C149.079,314.424 148.034,315.469 146.745,315.469 C145.458,315.469 144.413,314.424 144.413,313.136 L144.413,300.802 C144.413,299.514 145.458,298.469 146.745,298.469 C148.034,298.469 149.079,299.514 149.079,300.802 z" fill="#797979"/>
      <path d="M149.079,313.136 C149.079,314.424 148.034,315.469 146.745,315.469 C145.458,315.469 144.413,314.424 144.413,313.136 L144.413,300.802 C144.413,299.514 145.458,298.469 146.745,298.469 C148.034,298.469 149.079,299.514 149.079,300.802 L149.079,313.136 z" fill-opacity="0" stroke="#797979" stroke-width="4" stroke-linecap="round" stroke-linejoin="round"/>
      <path d="M130.597,310.854 L130.597,331.359 C130.597,334.766 133.361,337.53 136.769,337.53 L148.425,337.53 C151.835,337.53 154.597,334.766 154.597,331.359 L154.597,310.854 z" fill="#FFFFFF"/>
      <path d="M130.597,310.854 L130.597,331.359 C130.597,334.766 133.361,337.53 136.769,337.53 L148.425,337.53 C151.835,337.53 154.597,334.766 154.597,331.359 L154.597,310.854 L130.597,310.854 z" fill-opacity="0" stroke="#797979" stroke-width="4" stroke-linecap="round" stroke-linejoin="round"/>
      <path d="M149.14,316.636 C149.14,317.924 148.794,318.969 148.367,318.969 C147.943,318.969 147.597,317.924 147.597,316.636 L147.597,304.302 C147.597,303.014 147.943,301.969 148.367,301.969 C148.794,301.969 149.14,303.014 149.14,304.302 z" fill="#797979"/>
      <path d="M149.14,316.636 C149.14,317.924 148.794,318.969 148.367,318.969 C147.943,318.969 147.597,317.924 147.597,316.636 L147.597,304.302 C147.597,303.014 147.943,301.969 148.367,301.969 C148.794,301.969 149.14,303.014 149.14,304.302 L149.14,316.636 z" fill-opacity="0" stroke="#797979" stroke-width="4" stroke-linecap="round" stroke-linejoin="round"/>
      <path d="M42.964,139.253 C42.964,139.253 14.822,133.446 14.822,158.889 C14.822,173.856 24.509,180.652 44.427,180.937" fill="#FFEFD9"/>
      <path d="M42.964,139.253 C42.964,139.253 14.822,133.446 14.822,158.889 C14.822,173.856 24.509,180.652 44.427,180.937" fill-opacity="0" stroke="#797979" stroke-width="4" stroke-linecap="round" stroke-linejoin="round"/>
      <path d="M25.546,160.266 C25.546,160.266 29.234,158.563 32.749,158.584" fill="#FFEFD9"/>
      <path d="M25.546,160.266 C25.546,160.266 29.234,158.563 32.749,158.584" fill-opacity="0" stroke="#797979" stroke-width="4" stroke-linecap="round" stroke-linejoin="round"/>
      <path d="M185.183,139.253 C185.183,139.253 213.326,133.446 213.326,158.889 C213.326,173.856 203.636,180.652 183.718,180.937" fill="#FFEFD9"/>
      <path d="M185.183,139.253 C185.183,139.253 213.326,133.446 213.326,158.889 C213.326,173.856 203.636,180.652 183.718,180.937" fill-opacity="0" stroke="#797979" stroke-width="4" stroke-linecap="round" stroke-linejoin="round"/>
      <path d="M202.601,160.266 C202.601,160.266 198.911,158.563 195.396,158.584" fill="#FFEFD9"/>
      <path d="M202.601,160.266 C202.601,160.266 198.911,158.563 195.396,158.584" fill-opacity="0" stroke="#797979" stroke-width="4" stroke-linecap="round" stroke-linejoin="round"/>
      <path d="M200.156,139.059 C202.687,190.307 175.534,242.49 114.074,242.49 C52.902,242.49 25.716,190.799 27.956,139.786 C30.14,90.092 29.658,41.039 114.074,41.039 C198.488,41.039 197.712,89.614 200.156,139.059" fill="#FFEFD9"/>
      <path d="M200.156,139.059 C202.687,190.307 175.534,242.49 114.074,242.49 C52.902,242.49 25.716,190.799 27.956,139.786 C30.14,90.092 29.658,41.039 114.074,41.039 C198.488,41.039 197.712,89.614 200.156,139.059 z" fill-opacity="0" stroke="#797979" stroke-width="4" stroke-linecap="round" stroke-linejoin="round"/>
      <path d="M28.019,85.09 C28.019,85.09 59.189,57.214 64.872,48.315 L63.509,37.025 C63.509,37.025 12.157,56.242 28.019,85.09" fill="#9B8C81"/>
      <path d="M28.019,85.09 C28.019,85.09 59.189,57.214 64.872,48.315" fill="#9C8A76"/>
      <path d="M28.019,85.09 C28.019,85.09 59.189,57.214 64.872,48.315" fill-opacity="0" stroke="#797979" stroke-width="4" stroke-linecap="round" stroke-linejoin="round"/>
      <path d="M195.907,88.055 L177.438,74.685 L178.823,85.389 C163.457,82.624 111.157,57.388 111.157,57.388 C111.157,57.388 117.657,70.055 144.157,87.389 C99.657,85.555 68.907,58.555 56.603,43.657 C56.603,43.657 52.407,35.805 57.157,31.805 C61.907,27.805 92.845,10.964 130.157,16.805 C167.468,22.646 185.657,43.055 191.907,57.805 C198.157,72.555 195.907,88.055 195.907,88.055" fill="#9B8C81"/>
      <path d="M62.833,50.513 C75.137,65.411 99.657,85.555 144.157,87.389 C117.657,70.055 111.157,57.388 111.157,57.388 C111.157,57.388 163.457,82.624 178.823,85.389 L177.438,74.685 L195.907,88.055" fill-opacity="0" stroke="#797979" stroke-width="4" stroke-linecap="round" stroke-linejoin="round"/>
      <path d="M65.952,111.392 L87.669,115.808" fill-opacity="0" stroke="#797979" stroke-width="4" stroke-linecap="round" stroke-linejoin="round"/>
      <path d="M162.186,111.392 L140.469,115.808" fill-opacity="0" stroke="#797979" stroke-width="4" stroke-linecap="round" stroke-linejoin="round"/>
      <path d="M110.151,175.169 C110.151,175.169 108.818,181.169 114.07,180.836" fill-opacity="0" stroke="#797979" stroke-width="4" stroke-linecap="round" stroke-linejoin="round"/>
      <path d="M147.767,196.805 C146.515,195.626 141.767,193.305 137.767,196.805 C134.792,199.408 126.517,205.055 113.767,205.055 C101.017,205.055 92.742,199.408 89.767,196.805 C85.767,193.305 81.02,195.626 79.767,196.805 C73.448,202.75 84.421,216.627 105.917,219.514 C107.962,219.859 110.471,220.055 113.517,220.055 C113.601,220.055 113.683,220.05 113.767,220.05 C113.851,220.05 113.933,220.055 114.017,220.055 C117.063,220.055 119.572,219.859 121.617,219.514 C143.113,216.627 154.086,202.75 147.767,196.805" fill="#F4ACA6"/>
      <path d="M147.767,196.805 C146.515,195.626 141.767,193.305 137.767,196.805 C134.792,199.408 126.517,205.055 113.767,205.055 C101.017,205.055 92.742,199.408 89.767,196.805 C85.767,193.305 81.02,195.626 79.767,196.805 C73.448,202.75 84.421,216.627 105.917,219.514 C107.962,219.859 110.471,220.055 113.517,220.055 C113.601,220.055 113.683,220.05 113.767,220.05 C113.851,220.05 113.933,220.055 114.017,220.055 C117.063,220.055 119.572,219.859 121.617,219.514 C143.113,216.627 154.086,202.75 147.767,196.805 z" fill-opacity="0" stroke="#797979" stroke-width="4" stroke-linecap="round" stroke-linejoin="round"/>
      <path d="M68.267,144.055 C68.267,144.055 69.517,134.805 78.017,134.805 C86.517,134.805 87.333,143.938 87.333,143.938" fill-opacity="0" stroke="#797979" stroke-width="4" stroke-linecap="round" stroke-linejoin="round"/>
      <path d="M159.872,144.055 C159.872,144.055 158.622,134.805 150.122,134.805 C141.622,134.805 140.806,143.938 140.806,143.938" fill-opacity="0" stroke="#797979" stroke-width="4" stroke-linecap="round" stroke-linejoin="round"/>
      <path d="M73.71,160.385 C73.71,163.147 69.234,165.385 63.71,165.385 C58.187,165.385 53.71,163.147 53.71,160.385 C53.71,157.623 58.187,155.385 63.71,155.385 C69.234,155.385 73.71,157.623 73.71,160.385" fill="#FFD9D9"/>
      <path d="M154.429,160.385 C154.429,163.147 158.908,165.385 164.429,165.385 C169.952,165.385 174.429,163.147 174.429,160.385 C174.429,157.623 169.952,155.385 164.429,155.385 C158.908,155.385 154.429,157.623 154.429,160.385" fill="#FFD9D9"/>
      <path d="M52.445,285.223 L175.695,285.223 C175.695,285.223 124.445,298.223 115.445,298.223 C106.445,298.223 52.445,285.223 52.445,285.223" fill="#AF9C7F"/>
      <path d="M52.445,285.223 L175.695,285.223 C175.695,285.223 124.445,298.223 115.445,298.223 C106.445,298.223 52.445,285.223 52.445,285.223 z" fill-opacity="0" stroke="#797979" stroke-width="4" stroke-linecap="round" stroke-linejoin="round"/>
      <path d="M150.085,265.934 L72.104,301.236 L55.647,264.888 L133.63,229.582 z" fill="#E0DCC6"/>
      <path d="M150.085,265.934 L72.104,301.236 L55.647,264.888 L133.63,229.582 L150.085,265.934 z" fill-opacity="0" stroke="#797979" stroke-width="4" stroke-linecap="round" stroke-linejoin="round"/>
      <path d="M114.113,260.317 C117.369,267.515 114.977,275.626 108.767,278.438 C102.554,281.25 94.877,277.699 91.618,270.5 C88.361,263.303 90.752,255.192 96.968,252.379 C103.181,249.566 110.857,253.119 114.113,260.317" fill="#FFFFFF"/>
      <path d="M84.841,267.077 C87.288,272.483 85.243,278.688 80.274,280.94 C75.308,283.185 69.293,280.629 66.844,275.223 C64.4,269.815 66.444,263.608 71.412,261.358 C76.379,259.112 82.393,261.669 84.841,267.077" fill="#B0AA8E"/>
      <path d="M74.979,280.842 C74.979,280.842 72.109,287.502 77.935,295.648 L93.263,288.707 C93.263,288.707 89.57,280.232 83.909,276.466 z" fill="#B0AA8E"/>
      <path d="M132.455,236.515 C132.933,237.565 130.086,239.879 126.101,241.689 C122.113,243.49 118.496,244.104 118.025,243.049 C117.543,241.999 120.39,239.683 124.376,237.874 C128.363,236.074 131.979,235.461 132.455,236.515" fill="#B0AA8E"/>
      <path d="M161.697,283.639 L81.104,312.486 L67.657,274.92 L148.251,246.072 z" fill="#E0DCC6"/>
      <path d="M161.697,283.639 L81.104,312.486 L67.657,274.92 L148.251,246.072 L161.697,283.639 z" fill-opacity="0" stroke="#797979" stroke-width="4" stroke-linecap="round" stroke-linejoin="round"/>
      <path d="M126.3,275.117 C128.96,282.557 125.916,290.446 119.498,292.742 C113.077,295.041 105.715,290.878 103.053,283.438 C100.39,276 103.433,268.11 109.857,265.812 C116.277,263.513 123.64,267.679 126.3,275.117" fill="#FFFFFF"/>
      <path d="M96.576,279.476 C98.576,285.063 96.033,291.08 90.897,292.921 C85.765,294.754 79.978,291.718 77.975,286.132 C75.98,280.542 78.522,274.523 83.657,272.684 C88.79,270.848 94.576,273.886 96.576,279.476" fill="#B0AA8E"/>
      <path d="M85.627,292.394 C85.627,292.394 82.226,298.798 87.37,307.39 L103.212,301.718 C103.212,301.718 100.219,292.971 94.883,288.757 z" fill="#B0AA8E"/>
      <path d="M146.517,252.885 C146.907,253.97 143.881,256.046 139.763,257.525 C135.642,258.996 131.988,259.314 131.603,258.225 C131.208,257.139 134.233,255.062 138.355,253.583 C142.474,252.113 146.127,251.797 146.517,252.885" fill="#B0AA8E"/>
      <path d="M167.718,294.924 L86.052,320.577 L74.092,282.512 L155.759,256.856 z" fill="#E0DCC6"/>
      <path d="M167.718,294.924 L86.052,320.577 L74.092,282.512 L155.759,256.856 L167.718,294.924 z" fill-opacity="0" stroke="#797979" stroke-width="4" stroke-linecap="round" stroke-linejoin="round"/>
      <path d="M132.683,285.016 C135.049,292.554 131.697,300.317 125.194,302.361 C118.687,304.405 111.493,299.954 109.126,292.415 C106.758,284.879 110.11,277.115 116.618,275.071 C123.124,273.027 130.318,277.479 132.683,285.016" fill="#FFFFFF"/>
      <path d="M102.811,288.202 C104.588,293.863 101.812,299.776 96.607,301.413 C91.408,303.043 85.743,299.782 83.962,294.121 C82.188,288.457 84.965,282.542 90.168,280.907 C95.369,279.275 101.032,282.537 102.811,288.202" fill="#B0AA8E"/>
      <path d="M91.363,300.679 C91.363,300.679 87.711,306.944 92.515,315.732 L108.567,310.688 C108.567,310.688 105.92,301.829 100.754,297.409 z" fill="#B0AA8E"/>
      <path d="M153.758,263.596 C154.105,264.696 151.001,266.651 146.827,267.966 C142.652,269.275 138.988,269.449 138.646,268.345 C138.294,267.244 141.399,265.287 145.575,263.972 C149.748,262.664 153.412,262.493 153.758,263.596" fill="#B0AA8E"/>
      <path d="M164.685,312.054 L79.665,322.013 L75.021,282.384 L160.042,272.422 z" fill="#E0DCC6"/>
      <path d="M164.685,312.054 L79.665,322.013 L75.021,282.384 L160.042,272.422 L164.685,312.054 z" fill-opacity="0" stroke="#797979" stroke-width="4" stroke-linecap="round" stroke-linejoin="round"/>
      <path d="M132.116,295.781 C133.033,303.628 128.29,310.628 121.519,311.423 C114.745,312.216 108.509,306.501 107.591,298.654 C106.671,290.807 111.413,283.804 118.189,283.012 C124.962,282.218 131.199,287.934 132.116,295.781" fill="#FFFFFF"/>
      <path d="M102.173,293.336 C102.863,299.228 99.032,304.519 93.613,305.157 C88.201,305.787 83.244,301.526 82.551,295.632 C81.865,289.737 85.698,284.444 91.115,283.808 C96.529,283.175 101.483,287.438 102.173,293.336" fill="#B0AA8E"/>
      <path d="M88.597,303.455 C88.597,303.455 83.841,308.928 86.919,318.458 L103.63,316.5 C103.63,316.5 102.685,307.303 98.434,301.997 z" fill="#B0AA8E"/>
      <path d="M156.818,278.671 C156.952,279.816 153.539,281.157 149.193,281.67 C144.847,282.176 141.214,281.663 141.085,280.516 C140.945,279.368 144.36,278.026 148.708,277.512 C153.053,277.007 156.683,277.523 156.818,278.671" fill="#B0AA8E"/>
      <path d="M162.599,319.786 L77.249,326.354 L74.185,286.571 L159.536,280 z" fill="#E0DCC6"/>
      <path d="M162.599,319.786 L77.249,326.354 L74.185,286.571 L159.536,280 L162.599,319.786 z" fill-opacity="0" stroke="#797979" stroke-width="4" stroke-linecap="round" stroke-linejoin="round"/>
      <path d="M130.701,302.229 C131.306,310.107 126.287,316.912 119.492,317.438 C112.693,317.959 106.688,312.002 106.081,304.124 C105.476,296.246 110.493,289.438 117.294,288.916 C124.093,288.392 130.097,294.352 130.701,302.229" fill="#FFFFFF"/>
      <path d="M100.88,298.594 C101.335,304.51 97.296,309.644 91.856,310.065 C86.423,310.48 81.64,306.024 81.184,300.109 C80.732,294.191 84.771,289.054 90.21,288.633 C95.646,288.218 100.425,292.674 100.88,298.594" fill="#B0AA8E"/>
      <path d="M86.911,308.165 C86.911,308.165 81.943,313.446 84.64,323.091 L101.414,321.799 C101.414,321.799 100.835,312.571 96.799,307.1 z" fill="#B0AA8E"/>
      <path d="M156.067,286.116 C156.156,287.267 152.691,288.47 148.327,288.81 C143.964,289.142 140.355,288.485 140.273,287.333 C140.177,286.181 143.642,284.975 148.008,284.635 C152.37,284.304 155.977,284.963 156.067,286.116" fill="#B0AA8E"/>
      <path d="M114.07,295.476 C108.07,295.476 51.57,285.223 51.57,285.223 L62.07,322.976 C62.07,322.976 105.82,337.976 114.07,337.976 C122.32,337.976 166.07,322.976 166.07,322.976 L176.57,285.223 C176.57,285.223 120.07,295.476 114.07,295.476" fill="#AF9C7F"/>
      <path d="M114.07,295.476 C108.07,295.476 51.57,285.223 51.57,285.223 L62.07,322.976 C62.07,322.976 105.82,337.976 114.07,337.976 C122.32,337.976 166.07,322.976 166.07,322.976 L176.57,285.223 C176.57,285.223 120.07,295.476 114.07,295.476 z" fill-opacity="0" stroke="#797979" stroke-width="4" stroke-linecap="round" stroke-linejoin="round"/>
      <path d="M114.07,301.976 L114.07,332.601" fill="#AF9C7F"/>
      <path d="M114.07,301.976 L114.07,332.601" fill-opacity="0" stroke="#797979" stroke-width="4" stroke-linecap="round" stroke-linejoin="round"/>
      <path d="M60.828,341.885 C68.486,343.06 71.381,340.743 81.62,334.977 C94.381,327.79 88.457,314.403 79.839,299.71 C71.224,285.021 54.262,289.886 43.056,302.029 C35.369,310.351 41.713,324.649 49.208,333.664 C53.664,339.025 58.317,341.499 60.828,341.885" fill="#FFEFD9"/>
      <path d="M60.828,341.885 C68.486,343.06 71.381,340.743 81.62,334.977 C94.381,327.79 88.457,314.403 79.839,299.71 C71.224,285.021 54.262,289.886 43.056,302.029 C35.369,310.351 41.713,324.649 49.208,333.664 C53.664,339.025 58.317,341.499 60.828,341.885 z" fill-opacity="0" stroke="#797979" stroke-width="4" stroke-linecap="round" stroke-linejoin="round"/>
      <path d="M70.376,301.938 L77.097,298.879" fill="#FFEFD9"/>
      <path d="M70.376,301.938 L77.097,298.879" fill-opacity="0" stroke="#797979" stroke-width="4" stroke-linecap="round" stroke-linejoin="round"/>
      <path d="M75.477,311.126 L82.196,308.067" fill="#FFEFD9"/>
      <path d="M75.477,311.126 L82.196,308.067" fill-opacity="0" stroke="#797979" stroke-width="4" stroke-linecap="round" stroke-linejoin="round"/>
      <path d="M80.155,320.351 L86.875,317.291" fill="#FFEFD9"/>
      <path d="M80.155,320.351 L86.875,317.291" fill-opacity="0" stroke="#797979" stroke-width="4" stroke-linecap="round" stroke-linejoin="round"/>
      <path d="M167.311,341.885 C159.654,343.06 156.758,340.743 146.519,334.977 C133.758,327.79 139.683,314.403 148.3,299.71 C156.915,285.021 173.877,289.886 185.084,302.029 C192.77,310.351 186.426,324.649 178.931,333.664 C174.475,339.025 169.823,341.499 167.311,341.885" fill="#FFEFD9"/>
      <path d="M167.311,341.885 C159.654,343.06 156.758,340.743 146.519,334.977 C133.758,327.79 139.683,314.403 148.3,299.71 C156.915,285.021 173.877,289.886 185.084,302.029 C192.77,310.351 186.426,324.649 178.931,333.664 C174.475,339.025 169.823,341.499 167.311,341.885 z" fill-opacity="0" stroke="#797979" stroke-width="4" stroke-linecap="round" stroke-linejoin="round"/>
      <path d="M157.763,301.938 L151.043,298.879" fill="#FFEFD9"/>
      <path d="M157.763,301.938 L151.043,298.879" fill-opacity="0" stroke="#797979" stroke-width="4" stroke-linecap="round" stroke-linejoin="round"/>
      <path d="M152.662,311.126 L145.944,308.067" fill="#FFEFD9"/>
      <path d="M152.662,311.126 L145.944,308.067" fill-opacity="0" stroke="#797979" stroke-width="4" stroke-linecap="round" stroke-linejoin="round"/>
      <path d="M147.985,320.351 L141.265,317.291" fill="#FFEFD9"/>
      <path d="M147.985,320.351 L141.265,317.291" fill-opacity="0" stroke="#797979" stroke-width="4" stroke-linecap="round" stroke-linejoin="round"/>
      <path d="M208.808,258.599 L202.91,236.217 L197.013,258.599 L202.91,280.983 z" fill="#FFE373"/>
      <path d="M202.91,251.053 L185.423,258.599 L202.91,266.151 L220.398,258.599 z" fill="#FFE373"/>
      <path d="M24.956,226.503 L19.059,204.121 L13.161,226.503 L19.059,248.887 z" fill="#FFE373"/>
      <path d="M19.059,218.957 L1.572,226.503 L19.059,234.055 L36.546,226.503 z" fill="#FFE373"/>
    </g>
  </g>
</svg>
